HIERARCHY
ROOT Hips
{
	OFFSET 0.000000 0.000000 0.000000
	CHANNELS 6 Xposition Yposition Zposition Zrotation Yrotation Xrotation 
	JOINT LHipJoint
	{
		OFFSET 0.000000 0.000000 0.000000
		CHANNELS 3 Zrotation Yrotation Xrotation
		JOINT LeftUpLeg
		{
			OFFSET 1.363060 -1.794630 0.839290
			CHANNELS 3 Zrotation Yrotation Xrotation
			JOINT LeftLeg
			{
				OFFSET 2.448110 -6.726130 0.000000
				CHANNELS 3 Zrotation Yrotation Xrotation
				JOINT LeftFoot
				{
					OFFSET 2.562200 -7.039590 0.000000
					CHANNELS 3 Zrotation Yrotation Xrotation
					JOINT LeftToeBase
					{
						OFFSET 0.157640 -0.433110 2.322550
						CHANNELS 3 Zrotation Yrotation Xrotation
						End Site
						{
							OFFSET 0.000000 0.000000 0.000000
						}
					}
				}
			}
		}
	}
	JOINT RHipJoint
	{
		OFFSET 0.000000 0.000000 0.000000
		CHANNELS 3 Zrotation Yrotation Xrotation
		JOINT RightUpLeg
		{
			OFFSET -1.305520 -1.794630 0.839290
			CHANNELS 3 Zrotation Yrotation Xrotation
			JOINT RightLeg
			{
				OFFSET -2.542530 -6.985550 0.000000
				CHANNELS 3 Zrotation Yrotation Xrotation
				JOINT RightFoot
				{
					OFFSET -2.568260 -7.056230 0.000000
					CHANNELS 3 Zrotation Yrotation Xrotation
					JOINT RightToeBase
					{
						OFFSET -0.164730 -0.452590 2.363150
						CHANNELS 3 Zrotation Yrotation Xrotation
						End Site
						{
							OFFSET 0.000000 0.000000 0.000000
						}
					}
				}
			}
		}
	}
}
MOTION
Frames: 31
Frame Time: 0.008333
9.425531 17.282712 -0.066744 35.792179 81.707096 57.772959 -10.839580 2.413900 1.977939 -9.723620 2.417375 -31.530678 0.191065 1.960261 52.742979 2.822978 18.105985 -0.373498 2.408600 0.000000 -33.986900 10.112529 -2.971594 2.769098 7.400890 -0.315638 -16.454524 1.925631 -0.629136 22.363136 -0.139067 1.655001 -6.548467 -0.028801 -0.000000 -49.810400
9.674180 17.355033 -0.033781 35.321752 81.544447 57.486971 -10.644440 2.222024 2.013417 -10.208068 1.884083 -32.932379 0.044218 1.907543 51.447263 2.766702 17.445735 -1.441667 2.053200 0.000000 -33.379400 10.270121 -3.079143 2.649816 6.991024 -0.651347 -15.260706 1.848330 -0.628920 20.815244 0.033094 2.131736 -3.609455 -0.001000 -0.000000 -53.103400
9.925439 17.422136 -0.000777 34.918177 81.396150 57.286713 -10.438473 2.049113 2.078337 -10.670246 1.320390 -34.271888 -0.124270 1.838173 49.857980 2.684566 16.606062 -2.374675 1.735000 -0.000000 -32.965300 10.428128 -3.187732 2.544699 6.588680 -0.951285 -14.143317 1.767587 -0.639594 19.364867 0.175820 2.617638 -0.686805 0.094200 0.000001 -55.669500
10.179494 17.482835 0.032622 34.675817 81.271701 57.267009 -10.217967 1.896063 2.176593 -11.118323 0.714042 -35.554076 -0.314857 1.751058 47.997273 2.585873 15.651227 -3.209389 1.455300 -0.000000 -32.786100 10.588413 -3.294697 2.454535 6.197398 -1.216474 -13.110863 1.682125 -0.659426 18.048087 0.282424 3.072405 2.146965 0.247500 0.000000 -57.467400
10.436594 17.536066 0.066598 34.650106 81.181928 57.483502 -9.980955 1.763071 2.311311 -11.554949 0.058117 -36.782335 -0.527723 1.644255 45.875508 2.481120 14.649304 -3.964394 1.216801 0.000000 -33.080099 10.750441 -3.398166 2.377860 5.826939 -1.453034 -12.165251 1.591640 -0.685806 16.887429 0.349668 3.452647 4.830395 0.437801 0.000000 -58.573000
10.696817 17.580974 0.101059 34.868957 81.135579 57.955795 -9.726865 1.650754 2.482335 -11.982656 -0.641973 -37.949159 -0.766259 1.515267 43.498004 2.379212 13.648595 -4.695243 1.007800 -0.000000 -33.680800 10.911786 -3.497224 2.309823 5.488888 -1.675416 -11.293787 1.496846 -0.716035 15.889385 0.378201 3.721207 7.321219 0.637300 0.000000 -59.153500
10.960353 17.616786 0.135677 35.314859 81.141572 58.661362 -9.458408 1.558466 2.689625 -12.395348 -1.374274 -39.044807 -1.030529 1.359094 40.844630 2.287392 12.697744 -5.376702 0.835700 0.000001 -35.001300 11.067518 -3.592237 2.245180 5.200739 -1.896264 -10.480307 1.399974 -0.747320 15.044859 0.371466 3.849170 9.597549 0.816300 0.000000 -59.409099
11.227139 17.642724 0.169886 35.943250 81.204444 59.540639 -9.180602 1.485162 2.928736 -12.789648 -2.110037 -40.047241 -1.324383 1.169635 37.901418 2.207751 11.805952 -6.037634 0.689599 -0.000000 -36.680200 11.211258 -3.685002 2.176808 4.977109 -2.132724 -9.694609 1.304288 -0.777851 14.333261 0.335624 3.830041 11.661527 0.952299 0.000000 -59.548600
11.497230 17.658030 0.202903 36.671108 81.327103 60.497119 -8.903438 1.427887 3.193215 -13.158288 -2.809161 -40.932029 -1.646009 0.939310 34.644019 2.137094 10.977427 -6.611484 0.579600 0.000000 -38.894400 11.334946 -3.778528 2.098568 4.833675 -2.396482 -8.904839 1.214256 -0.806491 13.725498 0.278183 3.678023 13.533331 1.033900 0.000001 -59.743300
11.770462 17.661869 0.233749 37.385516 81.509081 61.398460 -8.641262 1.381330 3.471072 -13.498252 -3.415929 -41.672666 -1.991685 0.662093 31.075619 2.065091 10.189022 -7.033036 0.511200 -0.000000 -41.455800 11.429839 -3.877088 2.004852 4.780872 -2.698680 -8.073327 1.135139 -0.833329 13.190820 0.207978 3.434923 15.245821 1.065700 -0.000000 -60.107800
12.046525 17.653323 0.261402 37.943378 81.747667 62.078867 -8.413216 1.337387 3.744234 -13.811346 -3.862041 -42.252806 -2.352607 0.337930 27.248995 1.974606 9.399473 -7.216658 0.491200 0.000000 -44.133800 11.486840 -3.986064 1.892684 4.823791 -3.045813 -7.162391 1.072476 -0.859497 12.702291 0.134461 3.164344 16.836242 1.068300 -0.000001 -60.684400
12.324985 17.631563 0.284854 38.184334 82.037364 62.354040 -8.240596 1.286808 3.987972 -14.110223 -4.072087 -42.679909 -2.715911 -0.021002 23.298210 1.844258 8.548158 -7.090256 0.519700 0.000000 -46.587200 11.498120 -4.111297 1.762863 4.958736 -3.441968 -6.140131 1.031310 -0.886921 12.242180 0.067231 2.946256 18.339145 1.075500 -0.000000 -61.445400
12.605232 17.596041 0.303499 37.966345 82.367332 62.061891 -8.141155 1.223824 4.174846 -14.422212 -3.981533 -42.996888 -3.066340 -0.385748 19.442775 1.654735 7.571885 -6.597647 0.588800 -0.000000 -48.700400 11.460309 -4.257048 1.620383 5.168042 -3.891284 -4.990914 1.014722 -0.917851 11.807594 0.015042 2.867719 19.779874 1.131500 -0.000000 -62.305900
12.886626 17.546668 0.317403 37.216293 82.719121 61.121208 -8.120739 1.150989 4.284328 -14.785247 -3.568648 -43.280136 -3.391118 -0.714198 15.959104 1.398101 6.423681 -5.733153 0.676200 -0.000000 -50.485900 11.378231 -4.423571 1.472824 5.414553 -4.403105 -3.726143 1.022346 -0.954296 11.415414 -0.015409 3.013543 21.169745 1.285301 0.000000 -63.147300
13.168451 17.484206 0.327381 35.988364 83.066849 59.596647 -8.167749 1.079535 4.315726 -15.222555 -2.894462 -43.614235 -3.679882 -0.964801 13.109969 1.088012 5.116530 -4.556272 0.749499 0.000000 -52.033800 11.267325 -4.604801 1.326413 5.639967 -4.994679 -2.391446 1.049527 -0.997585 11.103887 -0.020682 3.456013 22.500902 1.584700 0.000001 -63.845900
13.449872 17.410129 0.334670 34.453046 83.387675 57.686557 -8.258089 1.023003 4.289372 -15.716478 -2.094417 -44.074267 -3.922526 -1.107900 11.110761 0.757425 3.720414 -3.220511 0.773300 0.000000 -53.142299 11.148337 -4.790799 1.184828 5.784724 -5.680267 -1.057395 1.088389 -1.048164 10.927023 -0.002117 4.232042 23.747604 2.061600 -0.000000 -64.301600
13.730106 17.326787 0.340890 32.930801 83.667453 55.758225 -8.360576 0.990714 4.254612 -16.172036 -1.410434 -44.657568 -4.096353 -1.141880 9.990990 0.457879 2.453583 -1.825426 0.755099 0.000000 -54.007400 11.050203 -4.967483 1.043694 5.788156 -6.475122 0.184131 1.128465 -1.106391 10.951878 0.034181 5.338976 24.866923 2.725100 -0.000000 -64.457600
14.008114 17.236591 0.346847 31.596077 83.912759 54.014165 -8.461417 0.984864 4.230360 -16.528077 -0.933439 -45.404107 -4.192166 -1.059255 9.869848 0.213668 1.376172 -0.584689 0.693800 -0.000000 -54.288899 10.981325 -5.130144 0.906533 5.644646 -7.357669 1.272228 1.161900 -1.171529 11.231250 0.078073 6.693560 25.817833 3.534699 0.000000 -64.333000
14.283065 17.142487 0.353367 30.685834 84.125598 52.720516 -8.546498 0.999904 4.247225 -16.695242 -0.802051 -46.257100 -4.190880 -0.878904 10.660185 0.051332 0.650608 0.434013 0.633100 0.000000 -54.214400 10.956043 -5.271248 0.768961 5.339418 -8.310700 2.147896 1.179503 -1.244052 11.820495 0.118671 8.180365 26.554533 4.422900 0.000000 -64.017500
14.553536 17.047034 0.360544 30.345031 84.312616 52.010045 -8.611662 1.026519 4.294063 -16.677946 -0.989862 -47.188592 -4.090957 -0.609900 12.372406 -0.032068 0.248010 1.097312 0.585900 -0.000001 -53.397100 10.978249 -5.388272 0.621154 4.865934 -9.351295 2.785814 1.175946 -1.326668 12.789263 0.148599 9.686007 27.032508 5.313500 -0.000000 -63.610600
14.818812 16.952633 0.367854 30.369755 84.460643 51.662441 -8.668872 1.050314 4.342795 -16.512836 -1.376458 -48.179160 -3.896896 -0.264807 14.974172 -0.051496 0.074024 1.333669 0.548600 0.000000 -51.865300 11.028154 -5.480994 0.469776 4.260097 -10.403606 3.206066 1.145694 -1.419787 14.144125 0.160209 11.012776 27.249046 6.084000 0.000000 -63.333200
15.077851 16.861538 0.374830 30.627656 84.549657 51.514164 -8.724445 1.054951 4.366851 -16.245999 -1.865285 -49.139620 -3.619007 0.127153 18.320652 -0.018099 0.070251 1.115611 0.516500 0.000000 -49.439200 11.094791 -5.543939 0.305862 3.525178 -11.443894 3.434022 1.084514 -1.526537 15.909271 0.150994 12.026418 27.201478 6.647100 0.000000 -63.328700
15.329940 16.776087 0.381223 30.972190 84.554695 51.396853 -8.781635 1.029007 4.349536 -15.924886 -2.385344 -49.945201 -3.280144 0.524521 22.149235 0.059887 0.218913 0.474689 0.487900 -0.000000 -46.141000 11.169978 -5.569223 0.123162 2.664263 -12.426803 3.497891 0.988762 -1.648966 18.080150 0.119601 12.608692 26.905203 6.933900 -0.000000 -63.700500
15.574785 16.698708 0.387585 31.416552 84.456605 51.317849 -8.831775 0.974867 4.287228 -15.612676 -2.907596 -50.458226 -2.917482 0.884022 26.117212 0.176554 0.536758 -0.513968 0.464300 0.000000 -42.212000 11.260514 -5.547700 -0.082034 1.669003 -13.311257 3.410420 0.856712 -1.787595 20.630768 0.065099 12.689364 26.382548 6.913000 0.000001 -64.464700
15.812656 16.631915 0.394792 32.015846 84.248734 51.348707 -8.862227 0.908126 4.187253 -15.378124 -3.423572 -50.589694 -2.571783 1.176644 29.894145 0.325793 1.039502 -1.755619 0.443000 -0.000000 -38.119800 11.377230 -5.473024 -0.303510 0.551949 -14.048038 3.160321 0.691099 -1.940736 23.511775 -0.013146 12.240440 25.660238 6.586400 0.000000 -65.531600
16.044239 16.577920 0.403619 32.767274 83.936880 51.518267 -8.863675 0.849072 4.061845 -15.275081 -3.927752 -50.315982 -2.274141 1.392283 33.227141 0.501999 1.727229 -3.158714 0.414500 0.000001 -34.387500 11.525578 -5.343738 -0.526605 -0.644452 -14.586929 2.722151 0.499621 -2.105300 26.653862 -0.114877 11.283602 24.766454 5.989700 -0.000001 -66.720000
16.270450 16.538377 0.414605 33.603480 83.532329 51.792201 -8.832095 0.813980 3.923215 -15.330039 -4.410896 -49.664259 -2.040834 1.534253 35.958905 0.701325 2.586102 -4.646080 0.365399 0.000000 -31.429400 11.703565 -5.163242 -0.734357 -1.861745 -14.893877 2.068994 0.293283 -2.278251 29.978711 -0.237854 9.905058 23.728157 5.193200 0.000000 -67.772300
16.492507 16.514303 0.426864 34.210152 83.060346 51.894610 -8.785101 0.805807 3.783684 -15.501365 -4.840653 -48.721637 -1.872579 1.614552 38.034370 0.919057 3.574131 -6.162001 0.281500 0.000000 -29.453900 11.882071 -4.944306 -0.905613 -2.981925 -14.924107 1.178152 0.084025 -2.456115 33.395992 -0.377896 8.212409 22.584459 4.274900 0.000000 -68.520800
16.711217 16.505863 0.440597 34.596091 82.536220 51.846876 -8.723052 0.826243 3.648906 -15.774945 -5.207180 -47.537124 -1.766173 1.641488 39.430320 1.152211 4.661098 -7.648350 0.156200 0.000000 -28.491800 12.057997 -4.697975 -1.033949 -3.978083 -14.710169 0.043286 -0.118507 -2.637395 36.834964 -0.526396 6.404904 21.364380 3.346500 0.000000 -68.791599
16.927631 16.512696 0.454440 34.538147 81.991564 51.444497 -8.669899 0.865531 3.524650 -16.071877 -5.475321 -46.200803 -1.710308 1.625951 40.190278 1.392042 5.783460 -9.053977 -0.010900 -0.000000 -28.461200 12.201943 -4.443036 -1.109862 -4.762200 -14.259130 -1.334415 -0.307708 -2.818275 40.215818 -0.672765 4.640335 20.118815 2.488000 -0.000000 -68.634900
17.142364 16.533767 0.468382 34.101582 81.440508 50.751468 -8.628767 0.919846 3.412379 -16.364012 -5.635839 -44.756525 -1.695928 1.573945 40.358700 1.629001 6.890543 -10.317133 -0.207900 -0.000000 -29.193601 12.313841 -4.190548 -1.136062 -5.342209 -13.634133 -2.942630 -0.480179 -2.996212 43.486886 -0.801544 3.105505 18.870439 1.776900 0.000000 -67.936299
